<?xml version="1.0" encoding="utf-8"?>
<!-- Generator: Adobe Illustrator 28.0.0, SVG Export Plug-In . SVG Version: 6.00 Build 0)  -->
<svg version="1.1" id="Layer_1" xmlns="http://www.w3.org/2000/svg" xmlns:xlink="http://www.w3.org/1999/xlink" x="0px" y="0px"
	 viewBox="0 0 1000 1000" style="enable-background:new 0 0 1000 1000;" xml:space="preserve">
<style type="text/css">
	.st0{fill:#DBDBDA;}
	.st1{fill:#151721;}
	.st2{fill:#B17535;}
	.st3{fill:#804E23;}
	.st4{fill:#7E714D;}
	.st5{fill:#908D4B;}
	.st6{fill:#F2E33D;}
	.st7{fill:#E9C724;}
	.st8{fill:#D89937;}
	.st9{fill:#BE8D2E;}
	.st10{fill:#C5832E;}
	.st11{fill:#B5C0CB;}
	.st12{fill:#E4A889;}
	.st13{fill:#EBB792;}
	.st14{fill:#FAD2A7;}
	.st15{fill:#0A2D49;}
	.st16{fill:#0D162C;}
	.st17{fill:#D4BCAB;}
	.st18{fill:#E6BCA7;}
	.st19{fill:#F9D9A4;}
	.st20{fill:#D2B4B7;}
	.st21{fill:#962F2F;}
	.st22{fill:#6A1B22;}
	.st23{fill:#964535;}
	.st24{fill:#3C162E;}
	.st25{fill:url(#SVGID_1_);}
	.st26{fill:#A97365;}
	.st27{fill:#622944;}
	.st28{fill:#985E5F;}
	.st29{fill:#B6C280;}
	.st30{fill:#9F6A2A;}
	.st31{fill:url(#SVGID_00000096042343812808206340000011196686240019820946_);}
	.st32{fill:#935C27;}
	.st33{fill:#663B22;}
	.st34{fill:#1D272E;}
	.st35{fill:#0A1B23;}
	.st36{fill:#0C0E11;}
	.st37{display:none;}
	.st38{display:inline;}
	.st39{display:inline;fill:none;stroke:#000000;stroke-miterlimit:10;}
</style>
<g id="illustration">
	<path class="st0" d="M443.4,240c0,0-2.8,59.5,43.6,64.3s72.5-41.6,78.4-55.8c6-14.2-19-13.1-19-13.1l-44.6-19c0,0-44,15.3-45.6,3
		c-1.6-12.2-8.3-31.8-8.3-31.8L443.4,240z"/>
	<path class="st1" d="M531,119.2c13.1,0.5,54.1,4.3,63.5,10.7c10.2,6.9,9.1,32.2-1.8,39.2c-18.9-14.2-16.7,34-17.8,41.6
		c-0.1,0.4-1.7,5.4-2.4,8.3c-1,4.4-1.5,9.5-4.7,13.1c1.6-10.2,5.8-44.4,2.4-52.2c-0.1-0.3,0.2-1.3-1.2-1.2c0.6-9,4.4-22.9-5.9-33.8
		c-10.3-10.9-62.5-12.1-77.8-10.1c-40.8,5.4-38.2,22.3-35,57c-0.7,7.9-2.5,33.5-1.2,38c-0.6,0-0.6,0-1.2,0
		c-3.6-11.1,0.8-29.5,0-38.6c-0.5-6.1-3.7-12.5-4.7-18.4c-2.5-14-6.1-27.7-9.5-41.6C472.7,122.9,487.7,117.7,531,119.2z"/>
	<path class="st2" d="M578.5,113.2c13.4,2.7,89.2,24.3,91.4,36.2c2.9,15.6-59.7,22.9-71.2,26.7c-2.9,1.1-2.1-4.2-5.9-7.1
		c10.9-7,12-32.3,1.8-39.2c-9.4-6.4-50.4-10.2-63.5-10.7c5.3-5.3,5.3-5.3,10.7-10.7C553.4,109.6,567,110.9,578.5,113.2z"/>
	<path class="st2" d="M405.1,126.3c-0.1,0.6-2,2.1-2.4,2.4c-1.7,1.1-40.3,16.1-31.5,17.8c20.5-6.6,41.3-11.1,62.3-15.4
		c3.4,13.8,7,27.5,9.5,41.6C374.7,160.3,322.9,157.7,405.1,126.3z"/>
	<path class="st3" d="M558.3,72.9c-18.9-17-4.8-19.8-39.2-21.4c-6.7-0.3-7.9,1.2-8.3,1.2c-22.8,0.9-25.4-3.9-35,22.6
		c11-3.6,22.3-4.6,33.8-4.7c3.1,0,6.4-0.2,9.5,0c16.1,0.8,28.6,5.6,42.7,8.3c3,5.8,6.6,11.5,8.3,17.8c-10.4-12.6-32.8-17.3-48.7-19
		c-5-0.5-6.8-1.2-7.1-1.2c-2-0.1-4,0-5.9,0c-2.4,0-4.8-0.1-7.1,0c-29.9,1.8-33.1,7-41.6,22.6c-0.6,0-0.6,0-1.2,0
		c7.7-12.5,11.4-24.6,29.7-49.9c1.5-0.2,3.3,0.2,4.7,0c6.2-1,11.5-1.9,17.8-2.4c3.3-0.2,5.5-1,8.3-1.2c6.3-0.4,12.5,2.7,14.2,0.6
		c-5.9-8.6-5.9-8.6-11.9-17.2C539.6,34.4,549.3,56.4,558.3,72.9z"/>
	<path class="st3" d="M519.1,97.8c7.7,0.2,26.4,2,33.8,3.6c19.6,4.1,25,17.7,18.4-3.6c2.1,2.9,4.4,9.3,5.9,13.1
		c0.4,0.9,1.1,1.4,1.2,2.4c-11.5-2.3-25-3.7-36.8-4.7c-58.2-5.4-84.1,2-138.9,20.2c0.4-0.2,2.3-1.8,2.4-2.4
		c14.6-5.6,29.3-10.7,44.5-14.2c4.8-3.8,3.9-5.7,4.2-5.9c1.1-0.1,1.3,1.3,2.4,1.2c4.9-0.4,21.6-6.5,42.7-8.3
		c8.4-0.7,6.8-1.2,7.1-1.2C510.4,97.6,514.8,97.7,519.1,97.8z"/>
	<path class="st4" d="M508.4,28.9c-3.5,0.1-14.7,15.5-15.4,20.2c-1.5,0.2-3.2-0.2-4.7,0c4.7-6.5,9.9-16.9,16.6-21.4
		c1.8,0.6,2.3-1,3.6-1.2C508.4,27.7,508.4,27.7,508.4,28.9z"/>
	<path class="st5" d="M459.7,99c-1.4,2.5-2.9,5.5-3.6,8.3c-1.1,0.1-1.3-1.3-2.4-1.2c1.7-2.1,3.3-4.8,4.7-7.1
		C459.2,99,459.2,99,459.7,99z"/>
	<path class="st6" d="M541.7,108.5c-5.3,5.3-5.3,5.3-10.7,10.7c-43.3-1.5-58.3,3.7-97.4,11.9c-21,4.4-41.9,8.9-62.3,15.4
		c-8.8-1.7,29.8-16.7,31.5-17.8C457.5,110.5,483.5,103.1,541.7,108.5z"/>
	<path class="st2" d="M570.2,96.6c0.1,0.1,0.3,0,1.2,1.2c6.6,21.3,1.2,7.7-18.4,3.6c-7.4-1.6-26.2-3.4-33.8-3.6c0-0.6,0-0.6,0-1.2
		c1.2-9.5,1.2-9.5,2.4-19C537.3,79.3,559.7,84,570.2,96.6z"/>
	<path class="st6" d="M498.9,99c-21.2,1.8-37.8,7.9-42.7,8.3c0.6-2.8,2.2-5.8,3.6-8.3c8.5-15.6,11.7-20.8,41.6-22.6
		C500.1,87.7,500.1,87.7,498.9,99z"/>
	<path class="st2" d="M558.3,72.9c1.1,2,2.5,3.8,3.6,5.9c-14.1-2.8-26.7-7.5-42.7-8.3c0-9.5,0-9.5,0-19
		C553.5,53.1,539.3,55.8,558.3,72.9z"/>
	<path class="st6" d="M510.8,52.7c-0.6,8.9-0.6,8.9-1.2,17.8c-11.5,0.1-22.8,1.1-33.8,4.7C485.4,48.7,488,53.6,510.8,52.7z"/>
	<path class="st7" d="M508.4,28.9c8.2-0.3,2.1,12.4,2.4,17.8c-6.3,0.4-11.6,1.3-17.8,2.4C493.7,44.5,504.9,29.1,508.4,28.9z"/>
	<path class="st8" d="M519.1,51.5c0,9.5,0,9.5,0,19c-3.1-0.2-6.4,0-9.5,0c0.6-8.9,0.6-8.9,1.2-17.8
		C511.2,52.7,512.4,51.2,519.1,51.5z"/>
	<path class="st7" d="M508.4,76.4c-1.2,10.7-1.2,10.7-2.4,21.4c-0.4,0,1.2,0.5-7.1,1.2c1.2-11.3,1.2-11.3,2.4-22.6
		C503.7,76.3,506.1,76.4,508.4,76.4z"/>
	<path class="st2" d="M521.5,28.9c5.9,8.6,5.9,8.6,11.9,17.2c-1.7,2.1-7.9-1-14.2-0.6c-0.6-7.2,2.4-11.2-1.2-17.8
		C522.6,28.6,521.3,28.9,521.5,28.9z"/>
	<path class="st8" d="M514.4,76.4c0.8,10.2-2.9,21.6,4.7,20.2c0,0.6,0,0.6,0,1.2c-4.3-0.1-8.8-0.2-13.1,0
		c1.2-10.7,1.2-10.7,2.4-21.4C510.4,76.4,512.4,76.3,514.4,76.4z"/>
	<path class="st9" d="M517.9,27.7c3.6,6.7,0.6,10.6,1.2,17.8c-2.8,0.2-5,1-8.3,1.2c-0.3-5.4,5.8-18.1-2.4-17.8c0-1.2,0-1.2,0-2.4
		C512.8,26,514.9,27.2,517.9,27.7z"/>
	<path class="st10" d="M521.5,77.6c-1.2,9.5-1.2,9.5-2.4,19c-7.6,1.4-3.9-10-4.7-20.2C514.7,76.4,516.5,77.1,521.5,77.6z"/>
	<path class="st11" d="M570.1,232c-1.5,7.3-2,10.1-4.7,16.6c-7.6,18.4-32.1,42.1-51.1,48.7c-10.6-2.5,2-4.1,11.3-11.9
		c8.4-7.1,16.5-16,22.6-25.1c3.8-5.6,6.6-9.6,6.9-15.7c0.7-10.3-37.1-15-47.9-21c2.1-2.1,1.9-4.6,2.1-5.6
		c52.7,17.9,57.5-12.3,58.5-18.9c1.4-8.8,1-17.1,1.1-20.5c0.5,1.1,1.9,3.5,2.2,5.5C572.7,196.5,571.6,224.6,570.1,232z"/>
	<path class="st12" d="M507.2,252.1c-8.3,3.8-10.6,1.8-15.4,0c-4.8-1.8-9.7-8.2-8.3-15.4c0.3-0.1,3-2.9,4.7-3.6
		C504,232.7,526.4,231.5,507.2,252.1z"/>
	<path class="st13" d="M592.7,169c3.9,2.9,3,8.2,5.9,7.1c-5.5,15.4-9.6,24.8-23.7,34.4C576,203,573.8,154.9,592.7,169z"/>
	<path class="st14" d="M569,178.5c-0.7,11.3-1.1,26.9-5.9,37.4c-2.7,5.9-15.3,11.1-16.5,11.3c-0.4,0.1-0.8-0.1-1.2,0
		c-4.6,0.1-16.6-5.3-35.8-4.8c9.8-8.3-7.8-4.2-13.7-4.7c-5.3-0.5-20.9-9.6-13.7,3.6c-32.9,14.6-29.9-6.6-32.1-29.7
		c-3.2-34.7-5.8-51.5,35-57c15.3-2,67.5-0.8,77.8,10.1C573.3,155.6,569.5,169.6,569,178.5z"/>
	<path class="st12" d="M513.8,196.3c0.7-0.4,3.1,5.6,3,6.5C515.8,208.9,511.5,197.7,513.8,196.3z"/>
	<path class="st1" d="M451.5,845.6c0.8,1.3-5.3,4.4,8.3,6.5c10.5,45.4-49.4,27.8-76.6,29.1c-3.5-2.6-0.9-3.2,0.6-5.9
		c23.7-13.2,31.2,0.1,35-1.2c9.7-3.4-12.4-10.2-5.9-11.9c5.5-1.4,10.5,9.3,11.9,9.5c7.2-4.9,26.8-23.7,20.8-32.1
		C446.7,839.7,451.2,845.2,451.5,845.6z"/>
	<path class="st1" d="M597.6,719.8c-8.1,20.1-0.6,23.9,0,38.6c1.3,31.3-8.4,61.9-9.5,93.2c-20.6-16.7-11.6,14.9,4.2,29.7
		c8.3,7.8,25.1,13.4,25.5,14.8c2.7,9.8-8.3,14.5-8.3,15.4c0,1.2,9.5,3,7.1,6.5c-30.9-1.2-32.6-22.5-45.1-27.3
		c1.6-4.6,1.3-4.4-2.4-7.7c-6.5-19.3-6.5-19.3-13.1-38.6c20.1,4.5,13.4,4,30.9-8.9c4.2-26.1,4.2-26.1,8.3-52.2
		c-2-16.7,0.7-33-4.2-49.3c-2.9-1.8-38.8-2.5-44.5,1.2c-4.2-6.5-4.2-6.5-8.3-13.1C547.3,723.6,585.6,721.4,597.6,719.8z"/>
	<path class="st15" d="M571.5,890.8c12.5,4.8,14.2,26.1,45.1,27.3c29,1.2,41.4-18.3,36.8-3c-2.2,7.2-34.2,9.7-41,8.9
		c-24.8-3-42.1-28.7-48.7-28.5c-14.3,0.4,0.3,27.2-15.4,20.2C546.1,914.7,536.6,877.4,571.5,890.8z"/>
	<path class="st15" d="M476.5,883.6c4.5,10.2-12.1,0.6-23.7,17.8c-7.6,2.8-14.8,7.3-23.2,8.3c-8.1,1-63.2,1.3-58.8-11.3
		c2.2-6.1,19.1,3,27.9,4.2C456.6,910.4,444.8,879,476.5,883.6z"/>
	<path class="st15" d="M452.7,901.4c11.6-17.2,28.2-7.6,23.7-17.8c18.8,2.7,21.1,31.6,7.7,27.3c-9.6-3.1,4.2-22.8-15.4-17.8
		C466.8,893.6,457.6,899.6,452.7,901.4z"/>
	<path class="st16" d="M476.5,717.4c14.7-0.3,10.1,2.4,10.7,2.4c-4.3,18,2.3,24.9,2.4,26.7c1.9,32.3-7.1,65.1-3.6,96.8
		c-0.2-0.1-2.7,2.4-4.7-0.6c-0.2-0.3,1.3-5.4-0.6-6.5c-1.3-0.8-29.4-0.6-30.9,0c-8.7,3.4,21.2,10.9,1.8,9.5
		c-0.3-0.5-4.8-5.9-5.9-5.9c0.9-3.6,4.7-6.1,4.7-6.5c2-11.5-9-68.1-11.9-84.3c-1.7-9.4,5.7-16.3-11.9-32.7
		C442.5,719.5,460.5,717.8,476.5,717.4z"/>
	<path class="st16" d="M556,844.5c-1.1-0.2-2.4,0.1-3.6,0c2.8-36.7-8.9-72.7-5.9-109.2c5.7-3.7,41.6-3,44.5-1.2
		c4.9,16.2,2.2,32.6,4.2,49.3c-4.2,26.1-4.2,26.1-8.3,52.2C569.4,848.5,576.1,848.9,556,844.5z"/>
	<path class="st17" d="M963.3,143.9c-1.9,7.5-3.2,18-13.7,17.8c-7.7-16.5,1-33.3-22-38C948.4,112,961.7,124.9,963.3,143.9z"/>
	<path class="st18" d="M889.7,154.6c-19.2,9.5-4.7,54.2,5.3,57c6.2,1.7,17.4-7.7,16-2.4c-4.4,2.2-8.3,5.3-13.7,4.7
		c-14-1.4-24.6-41.6-23.2-52.8c0.3-2.5,4.4-9,4.7-10.1c5.6-5.9,5.6-5.9,11.3-11.9C892,140.6,890.1,151.8,889.7,154.6z"/>
	<path class="st19" d="M963.3,143.9c2.4,28.9-28.4,45.1-46.3,62.9c-1.9,0.4-4.2,1.5-5.9,2.4c1.4-5.3-9.8,4.1-16,2.4
		c-10.1-2.8-24.5-47.5-5.3-57c-2.5,17.5-2.4,3.8,19.6-16.6c5.3-4.9,12-10.7,18.4-14.2c23,4.6,14.3,21.5,22,38
		C960,161.9,961.4,151.5,963.3,143.9z"/>
	<path class="st13" d="M924.7,148.7c3.8,2.1-12.5,14.7-20.8,26.7c-3.2,4.7-9.5,21.1-11.3,20.8c-3.9-2.2,8-22.7,10.1-25.5
		C908.8,162.2,917.2,155.7,924.7,148.7z"/>
	<path class="st13" d="M933,168.9c-3,13.8-18,25.2-29.7,32.1c-0.9-0.9-0.9-0.9-1.8-1.8C917.3,184,917.3,184,933,168.9z"/>
	<path class="st17" d="M104.8,133.3C78.8,122.4,72,159,76.3,177.2c-4.6-4.7-11.3-9.3-14.2-15.4c-7.1-14.8-1.7-29.3,10.7-39.2
		C83.9,120.8,88.6,117.1,104.8,133.3z"/>
	<path class="st20" d="M145.2,147.5c8.4,18.6,1.5,33.4,7.1,42.7c-0.1,14.1,1.6,17.9-10.7,27.3c-1.5-1.6-2.9-2.9-4.2-4.7
		c-2.2,2.8-9.3-0.8-12.5-2.4c5.6,0.6,5.6,0.6,11.3,1.2c1.3-0.7-1.3-2.1-0.6-2.4c1.7-0.6,11.4,1.9,9.5-11.3
		c-0.2-1.4-6.5-9.6-5.9-13.1c14.7-15.1-2.5-35.9-4.7-52.8C137.6,133.4,141.6,145.2,145.2,147.5z"/>
	<path class="st14" d="M104.8,133.3c6.4,2.7,23.1,19.3,27.9,26.1c2.7-1.4-6.9-31.2,1.8-27.3c2.3,16.9,19.5,37.8,4.7,52.8
		c-0.6,3.4,5.7,11.7,5.9,13.1c1.9,13.2-7.8,10.7-9.5,11.3c-18.7-20.2-18.7-20.2-37.4-40.4c-0.3,6.3,34.7,43,37.4,40.4
		c-0.7,0.2,1.9,1.7,0.6,2.4c-5.6-0.6-5.6-0.6-11.3-1.2c-4-2.1-7.9-3.3-8.3-3.6c-15.1-8.3-28.3-17.4-40.4-29.7
		C72,159,78.8,122.4,104.8,133.3z"/>
	<path class="st20" d="M135.7,209.2c-2.7,2.6-37.7-34-37.4-40.4C117,189.1,117,189.1,135.7,209.2z"/>
	<path class="st13" d="M131,178.4c-13.8-16.1-47.2-48.1-9.5-14.8C125.2,168.3,128,173.1,131,178.4z"/>
	<path class="st13" d="M131,178.4c1,1.2,4.7,3.3,3,5.9C131.2,182.1,131.1,178.7,131,178.4z"/>
	<path class="st21" d="M406.4,259.1c6.5,11,6.5,11,13.1,22c-2.7,26.4-2.7,26.4-5.3,52.8c-99.6,8.7-167.8-2.3-236.9-77.8
		c-11-12-29.2-41.4-32.1-33.8c-1.1-1.4-3.4-4.5-3.6-4.7c12.3-9.4,10.6-13.2,10.7-27.3c4.9,9.4,99.9,68,114.6,73.6
		C315.3,282.4,358.6,271.1,406.4,259.1z"/>
	<path class="st22" d="M873,255.5C798.9,345.5,729,361.2,614.8,360c-8.4,2.6-17.5,49-13.7,72.4c-5.8-0.1-3.2-20.8-4.2-21.4
		c-7.8,3.8-15.9,4.6-23.2,5.9c-0.3-38.4,1-76.8,2.4-115.2c1.3-36.2,3.3-15.1-31.5,1.2c-9.8,4.6-29.3,10.7-39.8,11.9
		c0.1-0.4-0.1-0.8,0-1.2c0.7-2.6,7-10,3.6-16.6c2.7-0.6,5.7-1.5,8.3-2.4c19-6.5,43.4-30.3,51.1-48.7c5.1,1.7,10.3,3.2,15.4,4.7
		c15.8,4.7,37.7,11.3,53.4,14.2c-19.3,33.2-19.3,33.2-38.6,66.5c139,10.4,198.2-14.7,287.9-117.5c1.7,1.9,12.9,6.3,13.1,7.7
		C889.1,231.9,882.1,244.6,873,255.5z"/>
	<path class="st21" d="M886.1,214c-89.7,102.8-149,128-287.9,117.5c19.3-33.2,19.3-33.2,38.6-66.5c114.7,21.6,152-4.5,242.8-68.9
		C880.1,200.8,883.4,211.1,886.1,214z"/>
	<path class="st22" d="M406.4,259.1c13.3-3.3,26.3-7.9,39.8-10.7c0.1,18.4,13.2,42.8,31.5,48.7c-4,10.4-1.1,10.2-1.2,10.7
		c-0.1,0.5-1,1.2-2.4,8.3c-8.6-10.1-8.6-10.1-17.2-20.2c-12.2,22.4-8.7,13.6-33.8-8.9c-1.8,32.5-7.4,51.5-4.7,85.5
		c1.2,15.1,9.9,33.7,2.4,38.6c-1.4-13.7-10.5-37.1-17.2-49.9c-114,3.8-168.7-20.9-238.1-108c-8.7-10.9-18.8-29.1-20.2-30.9
		c2.8-7.5,21.1,21.8,32.1,33.8c69,75.5,137.3,86.5,236.9,77.8c2.7-26.4,2.7-26.4,5.3-52.8C412.9,270.1,412.9,270.1,406.4,259.1z"/>
	<path class="st21" d="M474.1,316.1c-0.1,0.4,0.1,0.8,0,1.2c-3.1,16.2-5.9,32.1-8.3,48.7c-1.3,9.1-2.1,23-5.9,22.6
		c-1.2-6-3.1-13.3-10.7-11.3c0.4,20.9-6.7,25.9-7.1,27.3c-1.8,6.3-7.4,28.5-4.7,29.1c-5.5,4.8-11.7,8-17.8,11.9
		c0.8-11.3,2.3-23.1,1.2-34.4c7.6-4.8-1.2-23.5-2.4-38.6c-2.7-34,2.9-53,4.7-85.5c25.2,22.5,21.6,31.3,33.8,8.9
		C465.5,306,465.5,306,474.1,316.1z"/>
	<path class="st21" d="M573.8,417c-3.3,0.6-5.7,2-9.5,2.4c-25,1.9-25.1-4.3-33.2-9.5c-0.8-3.2-2.2-8.6-4.7-10.7
		c-7.5-6.2-11.1,6.2-17.8-17.2c-5.3-18.6-3.5-38.1-1.2-57c2.2-3.1,34.5,10.4,68.9-23.2C574.9,340.2,573.6,378.6,573.8,417z"/>
	<path class="st22" d="M576.2,301.9c-34.3,33.5-66.7,20.1-68.9,23.2c-2.3,18.9-4.2,38.4,1.2,57c6.7,23.4,10.3,11,17.8,17.2
		c-19.6-1.3,0,7.7,4.7,10.7c8.2,5.2,8.2,11.4,33.2,9.5c-9.2,0.9-15.7,1.7-24.9,0c-45.1-8.3-43.8-61.4-36.8-96.2
		c0.5-2.5,1.7-5.7,2.4-8.3c10.5-1.2,30-7.3,39.8-11.9C579.5,286.8,577.5,265.7,576.2,301.9z"/>
	<path class="st23" d="M459.8,388.5c1.8,9.4-1.1,7.5-2.4,10.7c-6.9,17.1-18.5,22.8-14.2,28.5c-2.1,2.3-3.6,3.9-5.9,5.9
		c-2.6-0.5,3-22.8,4.7-29.1c0.4-1.4,7.5-6.4,7.1-27.3C456.7,375.3,458.7,382.5,459.8,388.5z"/>
	<path class="st24" d="M508.5,297.1c3.5,6.7-2.8,14-3.6,16.6c-10,0.5-19.9,0-28.5-5.9c0.1-0.5-2.9-0.3,1.2-10.7
		C487,300.1,499,299.1,508.5,297.1z"/>
	<linearGradient id="SVGID_1_" gradientUnits="userSpaceOnUse" x1="582.6034" y1="399.3654" x2="427.0761" y2="401.1748">
		<stop  offset="0" style="stop-color:#53203B"/>
		<stop  offset="1" style="stop-color:#904058"/>
	</linearGradient>
	<path class="st25" d="M497.8,323.2c-12.1,35.4-5.7,94.9,41.6,96.2c9.3,1.7,15.7,0.9,24.9,0c3.8-0.4,6.2-1.8,9.5-2.4
		c7.2-1.3,15.4-2.1,23.2-5.9c1,0.6-1.6,21.3,4.2,21.4c0.7,4.2,1.6,8.3,2.4,12.5c2.8,4.1,5.5,2.2,9.5,4.2
		c-4.1,11.2-23.9,20.5-35.6,24.9c-7.5,2.9-12.1,4.5-20.2,5.9c-14.6,2.5-30.4,3.5-45.1,3.6c-15.1,0.1-31.6-3.1-46.9-3.6
		c-8.1-0.2-16.6,1.3-24.3,1.2c-2,0-4,0-5.9,0c-1,0-10.7-2.2-20.2-1.2c1.4-10.1,3.9-20.7,4.7-30.9c27-11,40.2-33.5,46.3-61.1
		c2.1-9.8,4.8-25.8,0-22c2.4-16.6,5.2-32.5,8.3-48.7C481.9,320.2,489.4,323.1,497.8,323.2z"/>
	<path class="st26" d="M419.5,449.1c0.1-1.2-0.1-2.4,0-3.6c6.1-3.8,12.3-7.1,17.8-11.9c2.4-2,3.9-3.6,5.9-5.9
		c5.5-6.2,15.2-20,14.2-28.5c1.3-3.2,4.2-1.3,2.4-10.7c3.8,0.5,4.6-13.5,5.9-22.6c4.8-3.8,2.1,12.2,0,22
		C459.7,415.6,446.5,438.1,419.5,449.1z"/>
	<path class="st27" d="M505,313.7c-0.1,0.4,0.1,0.8,0,1.2c-0.7,2.6-1.9,5.8-2.4,8.3c-1.6,0-3.2,0-4.7,0c-8.5-0.2-16-3.1-23.7-5.9
		c0.1-0.4-0.1-0.8,0-1.2c1.4-7.1,2.3-7.8,2.4-8.3C485,313.8,495,314.3,505,313.7z"/>
	<path class="st28" d="M502.6,323.2c-7,34.8-8.3,87.9,36.8,96.2c-47.2-1.3-53.7-60.8-41.6-96.2C499.4,323.3,501,323.2,502.6,323.2z"
		/>
	<path class="st21" d="M443.2,427.7c-4.2-5.7,7.3-11.4,14.2-28.5C458.4,407.7,448.8,421.5,443.2,427.7z"/>
	<path class="st29" d="M526.3,399.2c2.6,2.1,4,7.5,4.7,10.7C526.3,406.9,506.8,398,526.3,399.2z"/>
	<path class="st8" d="M444.6,479.3c2.1,10.7,1.3,31,8.3,37.6c-2.6,7.2,8,9.8,2.8,17.5c-10-3.1-16.4-8-24.4-16.3
		c12.3,23.3,27.8,23.7,39.2,28.8c6.2,2.7,12.2,8.5,18.9,7.5c0.9,1.4-1.4,3.5-1.4,3.8c-0.4-3.2-4.5-3.6-5.5-0.6
		c-3.4,9.6-1.8,145.5-5.5,170.9c-12.4,0.4-26.4,2.2-38.7-1.3c-28-7.7-25.7-25.6-24.9-76.4c0.8-51.9,7.7-102.8,12.9-154
		c6.2,4.4,22.1,21.7,13.8,0.6c-1.3-3.2-8.8-10.7-12-11.9c0.3-2.6,0.7-5,0.9-7.5C436.3,476.9,443.8,479.3,444.6,479.3z"/>
	<path class="st30" d="M426.1,496.8c0.4-3.9,1.4-7.5,1.8-11.3c3.2,1.2,10.7,8.7,12,11.9C448.2,518.5,432.3,501.2,426.1,496.8z"/>
	
		<linearGradient id="SVGID_00000008132112521603164880000002433107188679273361_" gradientUnits="userSpaceOnUse" x1="624.4782" y1="600.3277" x2="497.4904" y2="603.3492">
		<stop  offset="0" style="stop-color:#91542E"/>
		<stop  offset="1" style="stop-color:#D89A38"/>
	</linearGradient>
	<path style="fill:url(#SVGID_00000008132112521603164880000002433107188679273361_);" d="M633.5,655.8c-0.2,14.4,0.1,28.8,0,43.2
		c-12.1,17.8-45.1,28.8-62.7,31.9c-9.3,1.7-39,4.1-46.1,2.5c-1.6-0.4-10.2-4.1-11.1-5.6c-2.7-19.5-10.4-37.2-14.8-55.7
		c-0.9-3.8-1.6-7.5-3.7-10.6c0.3-6.2-1.1-12.1-1.8-18.2c-3.2-26.8-3.3-57.8-5.5-85.1c0-0.2,2.2-2.3,1.4-3.8
		c-6.7,1-12.7-4.8-18.9-7.5c49.5-1.1,107.9-17.5,136.4-77.6C639.1,518.3,634.3,593.6,633.5,655.8z"/>
	<path class="st32" d="M606.8,469.3c-28.6,60.1-87,76.5-136.4,77.6c-11.4-5.1-26.9-5.5-39.2-28.8c8.1,8.3,14.4,13.2,24.4,16.3
		c6.8,2.1,13.4,1.9,20.3,2.5c29.9,2.6,50.8-0.3,78.4-16.3c8.6-5,13.3-7.8,21.2-15c11.4-10.4,21.8-23.1,29.5-38.8
		C605.6,467.7,606.2,468.3,606.8,469.3z"/>
	<path class="st3" d="M593.9,454.3c-5.8,12.4-27.4,27.1-16.6,28.8c-1.4,1.2-3.3,4-4.6,5c-2.8,2-24.1,14.4-25.8,15
		c-11.8,4.3-2.2-3.1-3.7-8.1c-0.5-1.7-4.9-1-4.6-3.8c0.4-4.7,25.8-2.5,16.6-19.4c9.1-4.7,24.5-14.5,27.7-26.3
		C589.6,450.1,588.2,449.2,593.9,454.3z"/>
	<path class="st3" d="M605,466.8c-7.7,15.7-18.1,28.4-29.5,38.8c-1.4-8.8-1.4-8.8-2.8-17.5c1.3-1,3.2-3.8,4.6-5
		c7.8-6.5,17.6-12.4,21.2-25C601.1,460.8,602.7,463.7,605,466.8z"/>
	<path class="st33" d="M598.5,458c-3.6,12.6-13.4,18.6-21.2,25c-10.9-1.7,10.8-16.4,16.6-28.8C594.1,454.5,594.6,453.8,598.5,458z"
		/>
	<path class="st3" d="M487.9,558.2c2.2,27.4,2.3,58.3,5.5,85.1c-5-6.2,0,28,0.9,45.7c0.5,10.6-0.7,27.6,1.8,35.7
		c-2.2,2.7-8.2,6.1-11.1,6.3c-0.5,0,3.1-2.9-8.3-2.5c3.7-25.3,2.1-161.2,5.5-170.9C483.4,554.6,487.5,555,487.9,558.2z"/>
	<path class="st8" d="M475.9,530.6c0,3.1,0,3.1,0,6.3c-6.9-0.6-13.5-0.4-20.3-2.5c5.2-7.8-5.4-10.3-2.8-17.5c0.2,0.2,0.7-0.2,0.9,0
		C456,526.4,469.2,530.2,475.9,530.6z"/>
	<path class="st2" d="M449.2,479.3c0.2,12.8,0.9,26.1,5.5,37.6c-0.3-0.2-0.7,0.2-0.9,0c-0.2-0.2-0.7,0.2-0.9,0
		c-7-6.5-6.2-26.8-8.3-37.6C446.1,479.3,447.6,479.3,449.2,479.3z"/>
	<path class="st7" d="M504.5,481.8c-0.8,9.9,0.9,20.2,0.9,21.3c0,5-1.9,11-0.9,16.3c-0.1,0,0.3,2.4-0.5,2.5
		c-13.3,2.4-37.4,2.9-49.3-5c-4.6-11.5-5.3-24.8-5.5-37.6c6,0.1,12.6-1.5,18.9-1.3C479.9,478.5,492.8,481.9,504.5,481.8z"/>
	<path class="st2" d="M546.9,503.1c5,2.8-0.5,12.1,7.4,17.5c-27.6,16-48.5,18.8-78.4,16.3c0-3.1,0-3.1,0-6.3
		c2.9,0.2,29.5-4.1,30.9-5c3.2-2.1,3.5-6.9-2.3-6.3c-1-5.3,0.9-11.3,0.9-16.3c11.3-3.1,36.9-7.5,34.1-25c6.3-1.5,9.8-3.3,15.7-6.3
		c9.2,16.9-16.2,14.7-16.6,19.4c-0.3,2.8,4.1,2,4.6,3.8C544.7,500,535.1,507.4,546.9,503.1z"/>
	<path class="st8" d="M539.5,478.1c2.8,17.5-22.9,21.9-34.1,25c0-1.1-1.7-11.4-0.9-21.3C515.9,481.8,528.2,480.7,539.5,478.1z"/>
	<path class="st33" d="M493.4,643.3c0.7,6,2.2,11.9,1.8,18.2c2.1,3.1,2.8,6.8,3.7,10.6c0,25.3,0,25.3,0,50.7c-0.2,0.6-2,0.9-2.8,1.9
		c-2.5-8-1.3-25.1-1.8-35.7C493.4,671.3,488.4,637.1,493.4,643.3z"/>
	<path class="st32" d="M572.7,488.1c1.4,8.8,1.4,8.8,2.8,17.5c-7.9,7.2-12.6,10-21.2,15c-7.9-5.4-2.4-14.7-7.4-17.5
		C548.6,502.5,569.9,490.1,572.7,488.1z"/>
	<path class="st30" d="M504.5,519.4c5.8-0.7,5.5,4.1,2.3,6.3c-1.4,0.9-28,5.2-30.9,5c-6.7-0.4-19.9-4.2-22.1-13.8
		c0.2,0.2,0.7-0.2,0.9,0c11.9,8,36,7.5,49.3,5C504.8,521.7,504.4,519.4,504.5,519.4z"/>
	<g>
		<path id="rightMiddleLip_2_" d="M486.5,242.8c0.3,0,0.5,0.3,0.5,0.5s-0.3,0.5-0.5,0.5c-0.3,0-0.5-0.3-0.5-0.5
			S486.3,242.8,486.5,242.8z"/>
		<circle id="upperLipBottomMid_1_" cx="497.3" cy="240.1" r="0.5"/>
		<circle id="rightUpperLipBottom1_1_" cx="493.8" cy="239.8" r="0.5"/>
		<path id="leftMiddleLip_2_" d="M507.1,241.8c0.3,0,0.5,0.3,0.5,0.5s-0.3,0.5-0.5,0.5s-0.5-0.3-0.5-0.5S506.8,241.8,507.1,241.8z"
			/>
		<circle id="leftUpperLipBottom1_1_" cx="500.8" cy="239.8" r="0.5"/>
		<path class="st34" d="M487.5,241c0.8-0.6,3.5-1.3,4.8-1.5c0.4-0.1,6-0.1,7.2-0.1c0.7,0,4.9-0.6,6.6,0.6c5.7,4.2-3.4,4.3-6.5,4.3
			C496.4,244.3,481,246.1,487.5,241z"/>
		<circle id="lowerLipTopMid_2_" cx="497.3" cy="244.1" r="0.5"/>
		<circle id="rightLowerLipTop0_2_" cx="493.8" cy="244.6" r="0.5"/>
		<circle id="leftLowerLipTop0_2_" cx="500.8" cy="244.6" r="0.5"/>
	</g>
	<g>
		<path class="st35" d="M468.6,177.3c7.2-1.6,14.4,5.1,12.5,8.9C478.1,192.3,452.3,181,468.6,177.3z"/>
		
			<ellipse id="rightEye0_1_" transform="matrix(0.312 -0.9501 0.9501 0.312 147.9509 565.5993)" cx="464.5" cy="180.6" rx="0.8" ry="0.8"/>
		
			<ellipse id="rightEye1_1_" transform="matrix(0.312 -0.9501 0.9501 0.312 154.8929 569.3994)" cx="470.6" cy="177.8" rx="0.8" ry="0.8"/>
		
			<ellipse id="rightEye5_1_" transform="matrix(0.312 -0.9501 0.9501 0.312 147.2389 572.2311)" cx="468.7" cy="184.5" rx="0.8" ry="0.8"/>
		
			<ellipse id="rightEye2_1_" transform="matrix(0.312 -0.9501 0.9501 0.312 157.1437 576.4385)" cx="476.6" cy="179.7" rx="0.8" ry="0.8"/>
		
			<ellipse id="rightEye3_1_" transform="matrix(0.312 -0.9501 0.9501 0.312 153.3587 584.4371)" cx="480.2" cy="186.3" rx="0.8" ry="0.8"/>
		
			<ellipse id="rightEye4_1_" transform="matrix(0.312 -0.9501 0.9501 0.312 149.4335 579.6724)" cx="475" cy="186.7" rx="0.8" ry="0.8"/>
	</g>
	<g>
		<path class="st35" d="M517.4,178.5c4.2-7.3,20.4-0.6,16.7,6C530,191.6,513.2,185.8,517.4,178.5z"/>
		
			<ellipse id="leftEye0_1_" transform="matrix(0.163 -0.9866 0.9866 0.163 266.6545 679.7076)" cx="533.9" cy="182.7" rx="0.8" ry="0.8"/>
		
			<ellipse id="leftEye1_1_" transform="matrix(0.163 -0.9866 0.9866 0.163 268.2892 670.6385)" cx="529.4" cy="177.2" rx="0.8" ry="0.8"/>
		
			<ellipse id="leftEye5_1_" transform="matrix(0.163 -0.9866 0.9866 0.163 258.6703 677.1401)" cx="528.4" cy="186.1" rx="0.8" ry="0.8"/>
		
			<ellipse id="leftEye2_1_" transform="matrix(0.163 -0.9866 0.9866 0.163 264.0993 663.6465)" cx="523.2" cy="176.2" rx="0.8" ry="0.8"/>
		
			<ellipse id="leftEye3_1_" transform="matrix(0.163 -0.9866 0.9866 0.163 254.993 661.5056)" cx="517.4" cy="180.5" rx="0.8" ry="0.8"/>
		
			<ellipse id="leftEye4_1_" transform="matrix(0.163 -0.9866 0.9866 0.163 254.3816 670.453)" cx="522.3" cy="185.3" rx="0.8" ry="0.8"/>
	</g>
	<g>
		<path class="st36" d="M518.5,150c5-1.2,32-0.4,27.9,8.9C544.7,162.9,497.4,155.3,518.5,150z"/>
		<circle id="leftBrow1_1_" cx="539.1" cy="151.7" r="0.8"/>
		<circle id="leftBrow4_1_" cx="515.5" cy="152.8" r="0.8"/>
		<circle id="leftBrow3_1_" cx="525.5" cy="150.6" r="0.8"/>
		<circle id="leftBrow0_1_" cx="543.1" cy="153.6" r="0.8"/>
		<circle id="leftBrow2_1_" cx="532.8" cy="150.2" r="0.8"/>
	</g>
	<g>
		<path class="st36" d="M469.8,154.8c4.9-0.4,10.9,1.3,13.7,5.3c-12.2,2.1-12.2,2.1-24.3,4.2C457.7,158.9,466.1,155.1,469.8,154.8z"
			/>
		<circle id="rightBrow1_1_" cx="463.4" cy="157.3" r="0.8"/>
		<circle id="rightBrow4_1_" cx="482.7" cy="159.3" r="0.8"/>
		<circle id="rightBrow3_1_" cx="474.9" cy="155.3" r="0.8"/>
		<circle id="rightBrow0_1_" cx="459.4" cy="161" r="0.8"/>
		<circle id="rightBrow2_1_" cx="468.6" cy="155.3" r="0.8"/>
	</g>
	<g>
		<path class="st34" d="M509.6,222.5c-1.2,1-5.2,2-7.1,2.4c-0.5,0.1-8.9,0.1-10.7,0c-1,0-6.4-3.7-9.5-3.6
			c-7.2-13.1,8.3-4.1,13.7-3.6C501.8,218.3,519.4,214.2,509.6,222.5z"/>
		<circle id="nose1_1_" cx="496.6" cy="204" r="0.8"/>
		<circle id="nose0_1_" cx="496.6" cy="198.2" r="0.8"/>
		<circle id="nose3_1_" cx="496.6" cy="216.6" r="0.8"/>
		<circle id="rightNose0_1_" cx="482.9" cy="218.1" r="0.8"/>
		<circle id="rightNose1_1_" cx="490.1" cy="220.1" r="0.8"/>
		<circle id="nose2_1_" cx="496.6" cy="209.5" r="0.8"/>
		<circle id="nose4_1_" cx="496.6" cy="221.9" r="0.8"/>
		<circle id="leftNose0_1_" cx="510" cy="219.1" r="0.8"/>
		<circle id="leftNose1_1_" cx="504.2" cy="221.1" r="0.8"/>
	</g>
</g>
<g id="skeleton_1_" class="st37">
	<circle id="rightShoulder" class="st38" cx="431.2" cy="297.3" r="8.2"/>
	<circle id="rightElbow" class="st38" cx="280.6" cy="315.5" r="8.2"/>
	
		<ellipse id="rightWrist" transform="matrix(0.9806 -0.1961 0.1961 0.9806 -36.8654 31.7024)" class="st38" cx="141.6" cy="202" rx="8.2" ry="8.2"/>
	<circle id="rightHip" class="st38" cx="443.1" cy="510.1" r="8.2"/>
	<circle id="rightKnee" class="st38" cx="449.5" cy="670.3" r="8.2"/>
	<circle id="rightAnkle" class="st38" cx="470.4" cy="861.6" r="8.2"/>
	<circle id="leftShoulder" class="st38" cx="576.2" cy="293.7" r="8.2"/>
	<circle id="leftElbow" class="st38" cx="749.9" cy="307.8" r="8.2"/>
	<circle id="leftWrist" class="st38" cx="892.6" cy="204.4" r="8.2"/>
	<circle id="leftHip" class="st38" cx="578.2" cy="488.1" r="8.2"/>
	<circle id="leftKnee" class="st38" cx="559.5" cy="670.3" r="8.2"/>
	<circle id="leftAnkle" class="st38" cx="578.5" cy="878.6" r="8.2"/>
	<polygon class="st39" points="431.1,297.6 443,510.4 578.1,488.4 576.1,294 	"/>
	<polyline class="st39" points="430.1,297.6 280.3,315.7 141.5,202.1 	"/>
	<polyline class="st39" points="577.6,293.6 750.1,308 892.7,204.7 	"/>
	<polyline class="st39" points="443,510.4 449.4,670.6 470.3,861.9 	"/>
	<polyline class="st39" points="578.1,488.4 559.4,670.6 578.4,878.9 	"/>
	<ellipse id="rightEye0" class="st38" cx="460.9" cy="183.7" rx="1" ry="1.2"/>
	<ellipse id="rightBrow1" class="st38" cx="459.3" cy="160.3" rx="1" ry="1.2"/>
	<path id="rightBrow4" class="st38" d="M487.9,163.6c0.5,0,1,0.5,1,1.2s-1.5,6.9-2.1,6.9c-0.5,0,0.1-6.2,0.1-6.9
		S487.3,163.6,487.9,163.6z"/>
	<ellipse id="nose1" class="st38" cx="496.5" cy="185.1" rx="1" ry="1.2"/>
	<ellipse id="rightBrow3" class="st38" cx="475.9" cy="158.8" rx="1" ry="1.2"/>
	<ellipse id="rightEye1" class="st38" cx="467.3" cy="178.2" rx="1" ry="1.2"/>
	<path id="rightBrow0" class="st38" d="M454.4,164.6c0.5,0,1,0.5,1,1.2s-1.5,6.9-2.1,6.9c-0.5,0,0.1-6.2,0.1-6.9
		S453.9,164.6,454.4,164.6z"/>
	<ellipse id="rightBrow2" class="st38" cx="466.9" cy="158.8" rx="1" ry="1.2"/>
	<ellipse id="rightEye5" class="st38" cx="467.3" cy="187.1" rx="1" ry="1.2"/>
	<ellipse id="rightEye2" class="st38" cx="475" cy="178.2" rx="1" ry="1.2"/>
	<ellipse id="rightEye3" class="st38" cx="481.4" cy="184.4" rx="1" ry="1.2"/>
	<ellipse id="nose0" class="st38" cx="496.5" cy="176.5" rx="1" ry="1.2"/>
	<ellipse id="nose3" class="st38" cx="496.4" cy="215.6" rx="1" ry="1.2"/>
	<ellipse id="rightNose0" class="st38" cx="483.8" cy="219.5" rx="1" ry="1.2"/>
	<ellipse id="rightMouthCorner" class="st38" cx="476" cy="243.3" rx="1" ry="1.2"/>
	<ellipse id="rightNose1" class="st38" cx="489.6" cy="222.3" rx="1" ry="1.2"/>
	<ellipse id="rightUpperLipTop0" class="st38" cx="484.5" cy="238.3" rx="1" ry="1.2"/>
	<ellipse id="nose2" class="st38" cx="496.5" cy="193.3" rx="1" ry="1.2"/>
	<ellipse id="nose4" class="st38" cx="496.4" cy="223.5" rx="1" ry="1.2"/>
	<ellipse id="upperLipTopMid" class="st38" cx="497.4" cy="238" rx="1" ry="1.2"/>
	<ellipse id="rightUpperLipTop1" class="st38" cx="492.4" cy="236.7" rx="1" ry="1.2"/>
	<path id="rightMiddleLip" class="st38" d="M480.4,242.6c0.5,0,1,0.6,1,1.2c0,0.6-0.5,1.2-1,1.2s-1-0.6-1-1.2
		S479.9,242.6,480.4,242.6z"/>
	<ellipse id="lowerLipBottomMid" class="st38" cx="497.4" cy="257.6" rx="1" ry="1.2"/>
	<ellipse id="upperLipBottomMid" class="st38" cx="497.4" cy="243.3" rx="1" ry="1.2"/>
	<ellipse id="lowerLipTopMid" class="st38" cx="497.4" cy="248" rx="1" ry="1.2"/>
	<ellipse id="rightUpperLipBottom1" class="st38" cx="492.7" cy="242.6" rx="1" ry="1.2"/>
	<ellipse id="rightLowerLipTop0" class="st38" cx="492.7" cy="246.9" rx="1" ry="1.2"/>
	<ellipse id="rightLowerLipBottom1" class="st38" cx="492.4" cy="256.9" rx="1" ry="1.2"/>
	<ellipse id="rightLowerLipBottom0" class="st38" cx="483.8" cy="252.7" rx="1" ry="1.2"/>
	<ellipse id="rightEye4" class="st38" cx="475" cy="185.9" rx="1" ry="1.2"/>
	<ellipse id="jawMid" class="st38" cx="497.4" cy="295.9" rx="1" ry="1.2"/>
	<ellipse id="rightJaw7" class="st38" cx="479.1" cy="291.2" rx="1" ry="1.2"/>
	<ellipse id="rightJaw6" class="st38" cx="466.8" cy="281.2" rx="1" ry="1.2"/>
	<ellipse id="rightJaw5" class="st38" cx="452.6" cy="262.7" rx="1" ry="1.2"/>
	<ellipse id="rightJaw4" class="st38" cx="444.3" cy="233" rx="1" ry="1.2"/>
	<ellipse id="rightJaw3" class="st38" cx="443.3" cy="200.7" rx="1" ry="1.2"/>
	<ellipse id="rightJaw2" class="st38" cx="443.3" cy="186.6" rx="1" ry="1.2"/>
	<ellipse id="rightJaw1" class="st38" cx="444.3" cy="169.3" rx="1" ry="1.2"/>
	<ellipse id="rightJaw0" class="st38" cx="447.3" cy="155.4" rx="1" ry="1.2"/>
	<ellipse id="topMid" class="st38" cx="497.7" cy="116.7" rx="1" ry="1.2"/>
	<ellipse id="leftTop0" class="st38" cx="526.9" cy="120" rx="1" ry="1.2"/>
	<ellipse id="leftTop1" class="st38" cx="549.4" cy="131" rx="1" ry="1.2"/>
	<ellipse id="leftEye0" class="st38" cx="533.9" cy="183.7" rx="1" ry="1.2"/>
	<ellipse id="leftBrow1" class="st38" cx="538.2" cy="160.6" rx="1" ry="1.2"/>
	<ellipse id="leftBrow4" class="st38" cx="509.3" cy="163.7" rx="1" ry="1.2"/>
	<ellipse id="leftBrow3" class="st38" cx="521.6" cy="159" rx="1" ry="1.2"/>
	<ellipse id="leftEye1" class="st38" cx="527.6" cy="178.2" rx="1" ry="1.2"/>
	<ellipse id="leftBrow0" class="st38" cx="543.1" cy="164.9" rx="1" ry="1.2"/>
	<ellipse id="leftBrow2" class="st38" cx="530.5" cy="158.4" rx="1" ry="1.2"/>
	<ellipse id="leftEye5" class="st38" cx="527.6" cy="187.1" rx="1" ry="1.2"/>
	<ellipse id="leftEye2" class="st38" cx="519.8" cy="178.2" rx="1" ry="1.2"/>
	<ellipse id="leftEye3" class="st38" cx="513.5" cy="184.4" rx="1" ry="1.2"/>
	<ellipse id="leftNose0" class="st38" cx="510.4" cy="220.7" rx="1" ry="1.2"/>
	<ellipse id="leftMouthCorner" class="st38" cx="518.9" cy="243.3" rx="1" ry="1.2"/>
	<path id="leftNose1" class="st38" d="M503.2,221.1c0.5,0,1.3-3.8,1.3-3.2c0,0.7-0.7,5.5-1.3,5.5c-0.5,0-1-0.5-1-1.2
		S502.7,221.1,503.2,221.1z"/>
	<ellipse id="leftUpperLipTop0" class="st38" cx="510.4" cy="238.3" rx="1" ry="1.2"/>
	<ellipse id="leftUpperLipTop1" class="st38" cx="502.6" cy="236.7" rx="1" ry="1.2"/>
	<path id="leftMiddleLip" class="st38" d="M514.5,242.6c0.5,0,1,0.6,1,1.2c0,0.6-0.5,1.2-1,1.2c-0.5,0-1-0.6-1-1.2
		S514,242.6,514.5,242.6z"/>
	<ellipse id="leftUpperLipBottom1" class="st38" cx="502.3" cy="242.6" rx="1" ry="1.2"/>
	<ellipse id="leftLowerLipTop0" class="st38" cx="502.3" cy="246.9" rx="1" ry="1.2"/>
	<ellipse id="leftLowerLipBottom1" class="st38" cx="502.6" cy="256.9" rx="1" ry="1.2"/>
	<ellipse id="leftLowerLipBottom0" class="st38" cx="511" cy="252.7" rx="1" ry="1.2"/>
	<ellipse id="leftEye4" class="st38" cx="519.8" cy="185.9" rx="1" ry="1.2"/>
	<ellipse id="leftJaw7" class="st38" cx="515.6" cy="291.8" rx="1" ry="1.2"/>
	<ellipse id="leftJaw6" class="st38" cx="532.9" cy="281.4" rx="1" ry="1.2"/>
	<ellipse id="leftJaw5" class="st38" cx="554.2" cy="260.8" rx="1" ry="1.2"/>
	<ellipse id="leftJaw4" class="st38" cx="567.3" cy="232" rx="1" ry="1.2"/>
	<ellipse id="leftJaw3" class="st38" cx="568.3" cy="199.9" rx="1" ry="1.2"/>
	<ellipse id="leftJaw2" class="st38" cx="568.3" cy="185.7" rx="1" ry="1.2"/>
	<ellipse id="leftJaw1" class="st38" cx="567.3" cy="168.3" rx="1" ry="1.2"/>
	<ellipse id="leftJaw0" class="st38" cx="564.2" cy="153.4" rx="1" ry="1.2"/>
	<polyline class="st39" points="497.4,116.7 473.2,120.4 457.9,134.5 447.3,155.4 444.3,169.3 443.3,186.6 443.3,200.7 444.3,233 
		452.6,262.7 466.8,281.2 479.1,291.2 497.4,295.9 515.6,291.8 532.9,281.4 554.2,260.8 567.3,232 568.3,199.9 568.3,185.7 
		567.3,168.3 564.2,153.4 549.4,131 526.9,120 497.4,116.7 	"/>
	<polyline class="st39" points="454.4,165.8 459.3,160.3 466.9,158.8 475.9,158.8 487.9,164.7 	"/>
	<polygon class="st39" points="460.9,183.7 467.3,178.2 475,178.2 481.4,184.4 475,185.9 467.3,187.1 	"/>
	<polyline class="st39" points="483.8,219.5 489.6,222.3 496.4,223.5 496.4,215.6 496.5,193.3 496.5,185.1 496.5,176.5 	"/>
	<polyline class="st39" points="542.9,164.9 538,160.6 530.3,158.4 521.3,159 509.1,163.7 	"/>
	<polygon class="st39" points="533.7,183.7 527.2,178.2 519.5,178.2 513.2,184.4 519.5,185.9 527.2,187.1 	"/>
	<polyline class="st39" points="510.4,220.7 503,222.3 496.4,223.5 	"/>
	<polygon class="st39" points="476,243.3 484.5,238.3 492.4,236.7 497.4,238 502.6,236.7 510.4,238.3 518.9,243.3 511,252.7 
		502.3,256.9 497.4,257.6 492.4,256.9 483.8,252.7 	"/>
	<polyline class="st39" points="476,243.3 480.4,243.8 492.7,242.6 497.4,243.3 502.3,242.6 514.5,243.8 518.9,243.3 	"/>
	<polyline class="st39" points="476,243.3 480.4,243.8 492.7,246.9 497.4,248.1 502.3,246.9 514.5,243.8 518.9,243.3 	"/>
	<ellipse id="rightTop0" class="st38" cx="473.3" cy="120.4" rx="1" ry="1.2"/>
	<ellipse id="rightTop1" class="st38" cx="457.9" cy="134.5" rx="1" ry="1.2"/>
</g>
</svg>
